<svg width="20" height="20" viewBox="0 0 20 20" fill="none" xmlns="http://www.w3.org/2000/svg">
<path d="M9.99935 6.45842C9.48158 6.45842 9.06185 6.87815 9.06185 7.39592C9.06185 7.74109 8.78203 8.02092 8.43685 8.02092C8.09167 8.02092 7.81185 7.74109 7.81185 7.39592C7.81185 6.18779 8.79123 5.20842 9.99935 5.20842C11.2075 5.20842 12.1868 6.18779 12.1868 7.39592C12.1868 8.1987 11.7541 8.89973 11.1121 9.27955C10.9481 9.37656 10.8128 9.48248 10.7246 9.58639C10.639 9.68727 10.6243 9.75308 10.6243 9.79175V10.8334C10.6243 11.1786 10.3445 11.4584 9.99935 11.4584C9.65417 11.4584 9.37435 11.1786 9.37435 10.8334V9.79175C9.37435 9.37018 9.55891 9.02811 9.77151 8.77759C9.98154 8.5301 10.2434 8.34109 10.4756 8.20374C10.753 8.03958 10.9368 7.73888 10.9368 7.39592C10.9368 6.87815 10.5171 6.45842 9.99935 6.45842Z" fill="url(#paint0_linear_101964_7033)"/>
<path d="M9.99935 14.1667C10.4596 14.1667 10.8327 13.7937 10.8327 13.3334C10.8327 12.8732 10.4596 12.5001 9.99935 12.5001C9.53911 12.5001 9.16602 12.8732 9.16602 13.3334C9.16602 13.7937 9.53911 14.1667 9.99935 14.1667Z" fill="url(#paint1_linear_101964_7033)"/>
<path fill-rule="evenodd" clip-rule="evenodd" d="M9.95153 1.04175H10.0472C11.9708 1.04174 13.4784 1.04173 14.6546 1.19987C15.8585 1.36174 16.8086 1.69952 17.5542 2.4452C18.2999 3.19087 18.6377 4.14089 18.7996 5.34484C18.9577 6.52108 18.9577 8.02861 18.9577 9.95227V10.0479C18.9577 11.9716 18.9577 13.4791 18.7996 14.6553C18.6377 15.8593 18.2999 16.8093 17.5542 17.555C16.8086 18.3006 15.8585 18.6384 14.6546 18.8003C13.4784 18.9584 11.9708 18.9584 10.0472 18.9584H9.95154C8.02788 18.9584 6.52034 18.9584 5.3441 18.8003C4.14016 18.6384 3.19014 18.3006 2.44446 17.555C1.69879 16.8093 1.361 15.8593 1.19914 14.6553C1.041 13.4791 1.04101 11.9716 1.04102 10.0479V9.95227C1.04101 8.02861 1.041 6.52107 1.19914 5.34484C1.361 4.14089 1.69879 3.19087 2.44446 2.4452C3.19014 1.69952 4.14016 1.36174 5.3441 1.19987C6.52034 1.04173 8.02788 1.04174 9.95153 1.04175ZM5.51066 2.43872C4.44533 2.58195 3.80306 2.85437 3.32835 3.32908C2.85363 3.80379 2.58122 4.44606 2.43799 5.5114C2.29234 6.59471 2.29102 8.01823 2.29102 10.0001C2.29102 11.9819 2.29234 13.4055 2.43799 14.4888C2.58122 15.5541 2.85363 16.1964 3.32835 16.6711C3.80306 17.1458 4.44533 17.4182 5.51066 17.5614C6.59398 17.7071 8.01749 17.7084 9.99935 17.7084C11.9812 17.7084 13.4047 17.7071 14.488 17.5614C15.5534 17.4182 16.1956 17.1458 16.6704 16.6711C17.1451 16.1964 17.4175 15.5541 17.5607 14.4888C17.7064 13.4055 17.7077 11.9819 17.7077 10.0001C17.7077 8.01823 17.7064 6.59471 17.5607 5.5114C17.4175 4.44606 17.1451 3.80379 16.6704 3.32908C16.1956 2.85437 15.5534 2.58195 14.488 2.43872C13.4047 2.29308 11.9812 2.29175 9.99935 2.29175C8.01749 2.29175 6.59398 2.29308 5.51066 2.43872Z" fill="url(#paint2_linear_101964_7033)"/>
<defs>
<linearGradient id="paint0_linear_101964_7033" x1="-1.59988" y1="1.04175" x2="19.8103" y2="2.24629" gradientUnits="userSpaceOnUse">
<stop stop-color="#FF7000"/>
<stop offset="0.9999" stop-color="#E2985E"/>
<stop offset="1" stop-color="#E2995F"/>
</linearGradient>
<linearGradient id="paint1_linear_101964_7033" x1="-1.59988" y1="1.04175" x2="19.8103" y2="2.24629" gradientUnits="userSpaceOnUse">
<stop stop-color="#FF7000"/>
<stop offset="0.9999" stop-color="#E2985E"/>
<stop offset="1" stop-color="#E2995F"/>
</linearGradient>
<linearGradient id="paint2_linear_101964_7033" x1="-1.59988" y1="1.04175" x2="19.8103" y2="2.24629" gradientUnits="userSpaceOnUse">
<stop stop-color="#FF7000"/>
<stop offset="0.9999" stop-color="#E2985E"/>
<stop offset="1" stop-color="#E2995F"/>
</linearGradient>
</defs>
</svg>
